<?xml version="1.0" standalone="no"?>
<!DOCTYPE svg PUBLIC "-//W3C//DTD SVG 20010904//EN"
 "http://www.w3.org/TR/2001/REC-SVG-20010904/DTD/svg10.dtd">
<svg version="1.0" xmlns="http://www.w3.org/2000/svg"
 width="350.000000pt" height="55.000000pt" viewBox="0 0 350.000000 55.000000"
 preserveAspectRatio="xMidYMid meet">

<g transform="translate(0.000000,55.000000) scale(0.100000,-0.100000)"
fill="#000000" stroke="none">
<path d="M17 532 c-15 -16 -17 -49 -17 -259 0 -284 -3 -276 101 -271 l63 3 -3
47 c-2 45 -1 47 42 72 24 14 48 26 53 26 5 0 29 -25 53 -55 67 -84 91 -90 346
-90 l210 0 54 30 c29 16 65 44 79 63 l25 33 29 -35 c15 -19 54 -47 86 -63 56
-28 60 -28 268 -31 186 -3 213 -2 227 13 14 14 17 40 17 171 l0 154 -174 0
-174 0 -34 -43 c-19 -23 -37 -46 -40 -52 -4 -7 39 -9 123 -7 l129 3 0 -50 0
-51 -134 0 c-129 0 -136 1 -164 25 -62 52 -76 142 -31 199 36 46 55 51 233 56
l170 5 50 64 49 63 -259 -5 c-186 -3 -285 -9 -351 -21 -91 -17 -93 -17 -150 4
-52 18 -76 20 -224 18 l-167 -3 42 -55 c23 -30 53 -60 66 -67 22 -11 20 -13
-48 -47 -39 -20 -73 -36 -75 -36 -3 0 -7 20 -9 45 -7 61 -47 118 -100 144 -39
19 -62 21 -195 21 -133 0 -152 -2 -166 -18z m314 -122 c10 -6 19 -19 19 -29 0
-33 -24 -42 -107 -39 -73 3 -78 4 -81 26 -7 46 3 52 78 52 39 0 80 -5 91 -10z
m551 -71 c33 -63 18 -134 -38 -178 -22 -17 -41 -21 -105 -21 l-79 0 0 94 0 94
83 21 c45 12 87 24 92 26 19 7 30 -1 47 -36z m-382 -154 c0 -41 -4 -75 -8 -75
-5 0 -29 25 -55 55 l-47 54 42 20 c67 30 68 30 68 -54z m-270 7 c0 -15 -59
-52 -65 -42 -14 22 6 50 36 50 16 0 29 -4 29 -8z"/>
<path d="M1918 288 c-75 -102 -74 -98 -41 -98 23 0 35 11 68 60 l40 59 27 -32
c15 -17 28 -35 28 -39 0 -5 -17 -8 -38 -8 -36 0 -62 -14 -62 -32 0 -4 43 -8
95 -8 l95 0 -59 83 c-35 49 -66 83 -79 85 -15 2 -34 -15 -74 -70z"/>
<path d="M2160 275 c0 -78 2 -85 20 -85 18 0 20 7 20 85 0 78 -2 85 -20 85
-18 0 -20 -7 -20 -85z"/>
<path d="M2265 340 c-18 -20 -17 -20 68 -20 90 0 116 -12 82 -37 -12 -8 -46
-13 -92 -13 l-73 0 0 -40 c0 -33 3 -40 20 -40 15 0 20 7 20 25 0 23 4 25 43
25 33 0 49 -6 67 -25 15 -16 34 -25 54 -25 l31 0 -26 26 -26 26 23 23 c30 30
30 40 -1 70 -21 22 -33 25 -98 25 -61 0 -77 -3 -92 -20z"/>
<path d="M2510 275 l0 -85 78 0 c66 0 79 3 90 20 12 19 10 20 -53 20 l-65 0 0
65 c0 63 -1 65 -25 65 -25 0 -25 -1 -25 -85z"/>
<path d="M2720 275 c0 -84 0 -85 25 -85 25 0 25 1 25 85 0 84 0 85 -25 85 -25
0 -25 -1 -25 -85z"/>
<path d="M2817 353 c-4 -3 -7 -42 -7 -85 0 -71 2 -78 20 -78 17 0 20 7 20 50
0 28 3 50 6 50 4 0 33 -23 65 -51 78 -68 89 -63 89 41 0 73 -2 80 -19 80 -17
0 -20 -8 -23 -51 l-3 -51 -58 51 c-56 49 -76 59 -90 44z"/>
<path d="M3050 275 l0 -85 83 0 c71 0 84 3 95 20 12 19 10 20 -58 20 -56 0
-70 3 -70 15 0 11 13 15 54 15 35 0 58 5 66 15 11 13 4 15 -54 15 -52 0 -66 3
-66 15 0 12 13 15 58 15 46 0 60 4 70 20 12 19 10 20 -83 20 l-95 0 0 -85z"/>
<path d="M3292 344 c-12 -8 -22 -24 -22 -34 0 -33 39 -50 112 -50 54 0 68 -3
68 -15 0 -12 -16 -15 -80 -15 -69 0 -81 -3 -90 -20 -10 -19 -8 -20 63 -20 103
0 137 8 149 36 9 19 8 28 -7 44 -14 15 -33 20 -91 22 -93 4 -97 22 -7 26 63 3
93 13 93 33 0 16 -163 10 -188 -7z"/>
</g>
</svg>
